<?xml version="1.0" encoding="UTF-8" standalone="no"?>
<svg
   viewBox="0 0 256 256"
   width="256"
   height="256"
   version="1.1"
   id="svg45"
   sodipodi:docname="icon-large-new.svg"
   inkscape:version="1.1.2 (0a00cf5339, 2022-02-04)"
   xmlns:inkscape="http://www.inkscape.org/namespaces/inkscape"
   xmlns:sodipodi="http://sodipodi.sourceforge.net/DTD/sodipodi-0.dtd"
   xmlns="http://www.w3.org/2000/svg"
   xmlns:svg="http://www.w3.org/2000/svg">
  <sodipodi:namedview
     id="namedview47"
     pagecolor="#ffffff"
     bordercolor="#666666"
     borderopacity="1.0"
     inkscape:pageshadow="2"
     inkscape:pageopacity="0.0"
     inkscape:pagecheckerboard="0"
     showgrid="false"
     inkscape:zoom="3.4101562"
     inkscape:cx="71.697595"
     inkscape:cy="127.85338"
     inkscape:window-width="2318"
     inkscape:window-height="1393"
     inkscape:window-x="26"
     inkscape:window-y="23"
     inkscape:window-maximized="0"
     inkscape:current-layer="svg45" />
  <defs
     id="defs17">
    <linearGradient
       id="linearGradient16730"
       inkscape:swatch="solid">
      <stop
         style="stop-color:#000000;stop-opacity:1;"
         offset="0"
         id="stop16728" />
    </linearGradient>
    <linearGradient
       id="a"
       x1="11.622"
       x2="11.622"
       y1="7.023"
       y2="13.825"
       gradientTransform="matrix(7.9375,0,0,7.9375,0.5,0.592)"
       gradientUnits="userSpaceOnUse">
      <stop
         offset="0"
         stop-color="#0196CA"
         id="stop2" />
      <stop
         offset="1"
         stop-color="#0065A9"
         id="stop4" />
    </linearGradient>
    <linearGradient
       id="b"
       x1="11.622"
       x2="11.622"
       y1="8.675"
       y2="15.977"
       gradientTransform="matrix(7.9375,0,0,7.9375,0.5,0.592)"
       gradientUnits="userSpaceOnUse">
      <stop
         offset="0"
         stop-color="#01A7DE"
         id="stop7" />
      <stop
         offset="1"
         stop-color="#007ACC"
         id="stop9" />
    </linearGradient>
    <linearGradient
       id="c"
       x1="14.594"
       x2="14.594"
       y1="7.023"
       y2="15.977"
       gradientTransform="matrix(7.9375,0,0,7.9375,0.5,0.592)"
       gradientUnits="userSpaceOnUse">
      <stop
         offset="0"
         stop-color="#2EC2F6"
         id="stop12" />
      <stop
         offset="1"
         stop-color="#1F9CF0"
         id="stop14" />
    </linearGradient>
  </defs>
  <path
     id="path46590"
     style="stroke:none;stroke-width:4;stroke-miterlimit:4;stroke-dasharray:none;stroke-opacity:1;fill:#ffffff;fill-opacity:1"
     d="m 83,10.021484 c -0.0044,10.538893 1.949544,21.287505 7.095849,30.581415 4.593511,8.446576 11.869971,15.33496 20.424691,19.685675 1.9961,1.030575 4.05865,1.931051 6.16501,2.711426 -4.89519,0 -9.79037,0 -14.68555,0 0,16.666667 0,33.333333 0,50 -10.854002,0.0131 -21.709312,-0.0262 -32.5625,0.0195 -4.681386,0.39615 -8.783207,4.39787 -9.382812,9.04297 -0.127262,3.14153 -0.01855,6.2924 -0.05469,9.4375 0.0078,27.31244 -0.01564,54.62537 0.01172,81.9375 0.321008,4.64119 4.20958,8.73459 8.774035,9.46861 2.228451,0.2077 4.477633,0.0397 6.714246,0.0939 37.5,0 75,0 112.5,0 0,-36.66667 0,-73.33333 0,-110 -5.33333,0 -10.66667,0 -16,0 0,-16.666667 0,-33.333333 0,-50 -2.89518,0 -5.79036,0 -8.68555,0 9.35736,-3.419804 17.83532,-9.483004 23.60826,-17.655453 6.04687,-8.4265 9.06191,-18.709812 9.8302,-28.974228 0.23395,-2.790314 0.24501,-5.591676 0.26857,-8.3898502 -6.19979,-0.056707 -12.43035,0.4407006 -18.46153,1.930802 C 168.32149,12.348607 158.5822,17.522814 151.5014,25.400654 145.82607,31.627848 142.00636,39.403042 140,47.554688 137.76144,38.39827 133.17685,29.723873 126.34138,23.170735 118.27818,15.317151 107.50761,10.672453 96.480117,8.9106248 92.020973,8.163447 87.493582,7.9625284 82.978516,7.9804688 82.985677,8.6608073 82.992839,9.3411458 83,10.021484 Z" />
  <g
     id="g38055"
     style="display:inline;stroke:none;stroke-width:4;stroke-miterlimit:4;stroke-dasharray:none;stroke-opacity:1">
    <path
       fill="#21759b"
       d="m 70,115 c -4,0 -8,4 -8,8 v 90 c 0,4 4,8 8,8 H 186 V 115 Z"
       id="path19"
       style="stroke:none;stroke-width:4;stroke-miterlimit:4;stroke-dasharray:none;stroke-opacity:1" />
    <path
       fill="#1a5a78"
       d="m 62,123 v 90 c 0,4 4,8 8,8 H 82 V 115 H 70 c -4,0 -8,4 -8,8 z"
       id="path21"
       style="stroke:none;stroke-width:4;stroke-miterlimit:4;stroke-dasharray:none;stroke-opacity:1" />
    <g
       transform="translate(107,65)"
       id="g43"
       style="stroke:none;stroke-width:4;stroke-miterlimit:4;stroke-dasharray:none;stroke-opacity:1">
      <path
         fill="#76ce32"
         d="M -3,0 H 63 V 95 L 30,75 -3,95 Z"
         id="path23"
         style="stroke:none;stroke-width:4;stroke-miterlimit:4;stroke-dasharray:none;stroke-opacity:1" />
      <g
         transform="matrix(0.47,0,0,0.47,0,10)"
         id="g33"
         style="stroke:none;stroke-width:8.51064;stroke-miterlimit:4;stroke-dasharray:none;stroke-opacity:1">
        <path
           fill="#24292e"
           d="m 0.5,64.092 c 0,-35.084 28.416,-63.5 63.5,-63.5 29.601,0 54.457,20.23 61.501,47.625 h -24.065 a 25.436,25.436 0 0 0 -3.305,-4.524 c 0.635,-1.588 2.857,-8.097 -0.635,-16.828 0,0 -5.318,-1.747 -17.462,6.508 -5.08,-1.428 -10.478,-2.143 -15.875,-2.143 -5.397,0 -10.795,0.715 -15.875,2.143 -12.144,-8.175 -17.462,-6.508 -17.462,-6.508 -3.493,8.73 -1.27,15.24 -0.635,16.828 -4.048,4.445 -6.509,10.16 -6.509,17.066 0,17.057 7.281,24.836 16.51,28.507 v 12.959 c -3.492,-0.284 -7.264,-1.992 -10.16,-6.858 -1.19,-1.905 -4.762,-6.588 -9.763,-6.51 -5.318,0.08 -2.143,3.017 0.08,4.208 2.698,1.508 5.794,7.143 6.508,8.97 1.024,2.878 3.903,7.87 13.335,8.162 v 12.767 C 16.906,113.541 0.501,90.788 0.501,64.093 Z"
           id="path25"
           style="stroke:none;stroke-width:8.51064;stroke-miterlimit:4;stroke-dasharray:none;stroke-opacity:1" />
        <path
           fill="url(#a)"
           d="M 124.97,63.867 110.251,56.78 a 4.45,4.45 0 0 0 -5.077,0.863 l -46.2,39.965 a 2.977,2.977 0 0 0 0.003,4.402 l 7.904,7.547 a 2.977,2.977 0 0 0 3.801,0.169 l 40.941,-31.744 9.647,-10.638 c 0.988,-1.09 2.1,-2.382 3.563,-2.23 1.412,0.148 2.665,1.31 2.665,2.946 v -0.17 a 4.465,4.465 0 0 0 -2.528,-4.023 z"
           id="path27"
           style="fill:url(#a);stroke:none;stroke-width:8.51064;stroke-miterlimit:4;stroke-dasharray:none;stroke-opacity:1" />
        <path
           fill="url(#b)"
           d="m 124.97,119.88 -14.719,7.087 a 4.449,4.449 0 0 1 -5.077,-0.863 l -46.2,-43.933 a 2.977,2.977 0 0 1 0.003,-4.403 l 7.904,-7.546 a 2.977,2.977 0 0 1 3.801,-0.17 l 40.941,35.713 9.647,10.639 c 0.988,1.09 2.1,2.382 3.563,2.23 1.413,-0.149 2.665,-1.311 2.665,-2.947 v 0.171 a 4.465,4.465 0 0 1 -2.528,4.023 z"
           id="path29"
           style="fill:url(#b);stroke:none;stroke-width:8.51064;stroke-miterlimit:4;stroke-dasharray:none;stroke-opacity:1" />
        <path
           fill="url(#c)"
           d="m 110.25,126.97 a 4.451,4.451 0 0 1 -5.078,-0.864 c 1.648,1.647 6.45,0.48 6.45,-1.85 V 59.494 c 0,-2.33 -4.802,-3.497 -6.45,-1.85 a 4.452,4.452 0 0 1 5.078,-0.863 l 14.717,5.093 a 4.465,4.465 0 0 1 2.53,4.023 v 51.956 c 0,1.716 -0.984,3.28 -2.53,4.024 z"
           id="path31"
           style="fill:url(#c);stroke:none;stroke-width:8.51064;stroke-miterlimit:4;stroke-dasharray:none;stroke-opacity:1" />
      </g>
      <g
         transform="translate(33)"
         id="g41"
         style="stroke:none;stroke-width:4;stroke-miterlimit:4;stroke-dasharray:none;stroke-opacity:1">
        <path
           fill="#ffffff"
           d="m 0,0 c 0,-40 -28,-55 -55,-55 0,40 28,55 55,55 z M 0,0 C 0,-40 28,-55 55,-55 55,-15 27,0 0,0 Z"
           id="path35"
           style="stroke:none;stroke-width:4;stroke-miterlimit:4;stroke-dasharray:none;stroke-opacity:1" />
        <path
           fill="#76ce32"
           d="m -4,-4 c 0,-32 -22,-45 -45,-45 0,32 22,45 45,45 z"
           id="path37"
           style="stroke:none;stroke-width:4;stroke-miterlimit:4;stroke-dasharray:none;stroke-opacity:1" />
        <path
           fill="#76ce32"
           d="M 4,-4 C 4,-36 26,-49 49,-49 49,-17 27,-4 4,-4 Z"
           id="path39"
           style="stroke:none;stroke-width:4;stroke-miterlimit:4;stroke-dasharray:none;stroke-opacity:1" />
      </g>
    </g>
    <path
       style="fill:#ffffff;fill-opacity:1;stroke:none;stroke-width:4;stroke-miterlimit:4;stroke-dasharray:none;stroke-opacity:1"
       d="m 136.16224,213.39703 c -0.21954,-0.0256 -0.96793,-0.11182 -1.66311,-0.19158 -0.69517,-0.0798 -2.04228,-0.34459 -2.99356,-0.58845 -6.11981,-1.56882 -11.36355,-5.19013 -15.13515,-10.45227 -1.15412,-1.61023 -2.83871,-4.95602 -3.46586,-6.88358 -0.91572,-2.81451 -1.29091,-5.2641 -1.28722,-8.4038 0.009,-6.93401 2.5374,-13.17642 7.37717,-18.20772 9.16372,-9.52636 23.76195,-10.85245 34.54267,-3.13782 1.33858,0.95787 3.96757,3.46237 5.07384,4.83357 2.65617,3.29224 4.47436,7.13869 5.37216,11.36493 0.28317,1.33298 0.3561,2.10368 0.41422,4.37782 0.0988,3.86811 -0.20093,6.03338 -1.28584,9.28731 -1.3072,3.92067 -3.37793,7.24687 -6.38133,10.25027 -4.49034,4.49034 -9.94585,7.05832 -16.35782,7.69987 -1.29943,0.12994 -3.32408,0.15475 -4.21017,0.0514 z m 3.85837,-2.70506 c 1.54398,-0.0956 2.41479,-0.22928 3.84708,-0.59057 1.01824,-0.25688 1.89653,-0.51402 1.95175,-0.57147 0.0553,-0.0574 -0.46569,-1.66112 -1.1576,-3.5637 -1.41981,-3.90407 -5.83963,-15.97704 -6.05277,-16.53345 -0.13302,-0.34705 -0.15632,-0.31511 -0.51278,0.70076 -2.25078,6.41454 -3.62282,10.38811 -5.06379,14.66515 l -1.71342,5.08571 0.49239,0.13156 c 2.79151,0.74604 4.63097,0.8975 8.20914,0.67596 z M 122.1821,193.4468 c -2.97395,-8.11547 -5.50193,-15.03976 -5.61772,-15.38735 -0.11577,-0.3476 -0.25161,-0.63198 -0.30181,-0.63198 -0.24811,0 -1.19707,2.83459 -1.59575,4.76658 -1.34376,6.51195 0.10758,13.25737 4.04121,18.78289 1.06705,1.49885 3.97724,4.37812 5.51452,5.45595 1.41049,0.98891 3.27359,2.04023 3.32915,1.87859 0.0208,-0.0601 -2.39566,-6.74923 -5.3696,-14.86468 z m 29.47253,13.10415 c 1.59161,-1.10129 3.94251,-3.31973 5.13688,-4.84746 2.2203,-2.83996 3.79772,-6.1819 4.58193,-9.70729 0.1465,-0.65859 0.33505,-2.14674 0.41901,-3.30699 0.30712,-4.24416 -0.39138,-8.02266 -2.21103,-11.96025 -0.26207,-0.56711 -0.49301,-1.03111 -0.51318,-1.03111 -0.0202,0 -0.0368,0.91304 -0.037,2.02897 -2.7e-4,2.09008 -0.15207,3.41944 -0.58901,5.16021 -0.13843,0.55135 -2.07972,6.28525 -4.31406,12.742 -2.23434,6.45672 -4.06244,11.76824 -4.06244,11.80338 0,0.17231 0.33288,-0.0117 1.58891,-0.88146 z m -16.92181,-12.7266 c 1.40818,-4.22663 2.55945,-7.77402 2.55839,-7.88309 -0.001,-0.10905 -0.82458,-2.44349 -1.83005,-5.18759 l -1.82811,-4.98929 -1.26332,-0.0996 c -1.45694,-0.11489 -1.80808,-0.23518 -2.01566,-0.69077 -0.20578,-0.45165 0.0725,-1.11343 0.51494,-1.22447 0.1802,-0.0453 1.73973,-0.0102 3.46564,0.0791 2.47309,0.12703 3.87073,0.12644 6.59606,-0.003 l 3.45804,-0.16442 0.24405,0.3014 c 0.35163,0.43422 0.31269,0.9969 -0.0909,1.31441 -0.2559,0.20129 -0.64073,0.28578 -1.62983,0.35785 -0.71216,0.0519 -1.36326,0.13228 -1.4469,0.17855 -0.1032,0.0571 1.21797,4.15406 4.11403,12.757 2.34635,6.97005 4.3046,12.67281 4.35163,12.67281 0.0855,0 3.41016,-10.93164 3.78339,-12.43997 0.91614,-3.70237 0.35484,-6.57869 -2.0508,-10.50904 -0.74642,-1.2195 -1.39324,-2.55661 -1.5935,-3.29409 -0.279,-1.02751 -0.12893,-2.56255 0.33363,-3.41242 0.68703,-1.26231 2.01139,-2.14291 3.22278,-2.14291 0.24918,0 0.43309,-0.0529 0.40871,-0.11752 -0.0753,-0.19981 -1.58423,-1.40479 -2.759,-2.20332 -1.42604,-0.96934 -4.23418,-2.33013 -5.88295,-2.85081 -8.66799,-2.73736 -18.01929,-0.43759 -24.3524,5.98895 -1.2363,1.25455 -2.93564,3.41841 -2.82506,3.59731 0.0928,0.15015 1.30782,0.13945 5.01525,-0.0443 3.14258,-0.15568 3.16958,-0.15473 3.44649,0.1222 0.32554,0.32553 0.35638,1.03424 0.058,1.33261 -0.1241,0.1241 -0.74534,0.25972 -1.68188,0.36723 -0.81682,0.0937 -1.51156,0.19694 -1.54388,0.22924 -0.0721,0.0721 8.49828,25.64294 8.5944,25.64294 0.0377,0 1.2207,-3.45815 2.62886,-7.68477 z"
       id="path17641" />
  </g>
</svg>
